# xmcd
#
# Track frame offsets:
#	150
#	16499
#	39030
#
# Disc length: 737 seconds
#
# Revision: 0
# Processed by: cddbd v1.5.2PL0 Copyright (c) Steve Scherf et al.
# Submitted via: audiograbber 1.83.01
#
DISCID=1502df03
DTITLE=DJ Ötzi - Today is the day (Maxi)
DYEAR=2002
DGENRE=Pop
TTITLE0=Today is the day (Party Mix)
TTITLE1=Today is the day (Extended Party Mix)
TTITLE2=Today is the day (Karaoke Edit)
EXTD=
EXTT0=
EXTT1=
EXTT2=
PLAYORDER=
